<svg viewBox="0 0 512 512" xml:space="preserve" xmlns="http://www.w3.org/2000/svg" enable-background="new 0 0 512 512"><g id="Layer_32"><path d="M38 130.7h436.1v326.4H38z" fill="#def6fc" class="fill-def6fc"></path><path d="M38 130.7h25.2v326.4H38z" fill="#ffffff" class="fill-ffffff"></path><path d="M76.4 130.7H4.6l35.8-94.9c5.2-13.9 18.5-23 33.3-23h34.5L76.4 130.7z" fill="#bf53ed" class="fill-ff5741"></path><path d="M98.9 12.7H73.7c-14.8 0-28.1 9.2-33.3 23l-35.8 95h25.2l35.8-94.9c5.2-13.9 18.5-23.1 33.3-23.1z" fill="#da78f0" class="fill-ff908a"></path><path d="M148.2 130.7H76.4l31.8-118h59.1z" fill="#bf53ed" class="fill-ff5741"></path><path d="M220.1 130.7h-71.9l19.1-118h59.1z" fill="#bf53ed" class="fill-ff5741"></path><path d="M291.9 130.7h-71.8l6.3-118h59.2z" fill="#bf53ed" class="fill-ff5741"></path><path d="M363.8 130.7h-71.9l-6.3-118h59.1z" fill="#bf53ed" class="fill-ff5741"></path><path d="M435.6 130.7h-71.8l-19.1-118h59.1z" fill="#bf53ed" class="fill-ff5741"></path><path d="M507.4 130.7h-71.8l-31.8-118h34.5c14.8 0 28.1 9.2 33.3 23l35.8 95z" fill="#bf53ed" class="fill-ff5741"></path><path d="M40.5 199.8c-19.8 0-35.9-16.1-35.9-35.9v-33.2h71.8v33.2c0 19.8-16.1 35.9-35.9 35.9z" fill="#7f36ba" class="fill-f24133"></path><path d="M29.8 163.9v-33.2H4.6v33.2c0 19.8 16.1 35.9 35.9 35.9 4.4 0 8.7-.8 12.6-2.3-13.6-5.1-23.3-18.2-23.3-33.6z" fill="#da78f0" class="fill-ff908a"></path><path d="M112.3 199.8c-19.8 0-35.9-16.1-35.9-35.9v-33.2h71.8v33.2c0 19.8-16 35.9-35.9 35.9zM184.2 199.8c-19.8 0-35.9-16.1-35.9-35.9v-33.2h71.8v33.2c0 19.8-16.1 35.9-35.9 35.9zM256 199.8c-19.8 0-35.9-16.1-35.9-35.9v-33.2h71.8v33.2c0 19.8-16.1 35.9-35.9 35.9zM327.8 199.8c-19.8 0-35.9-16.1-35.9-35.9v-33.2h71.8v33.2c.1 19.8-16 35.9-35.9 35.9zM399.7 199.8c-19.8 0-35.9-16.1-35.9-35.9v-33.2h71.8v33.2c0 19.8-16.1 35.9-35.9 35.9zM471.5 199.8c-19.8 0-35.9-16.1-35.9-35.9v-33.2h71.8v33.2c0 19.8-16 35.9-35.9 35.9z" fill="#7f36ba" class="fill-f24133"></path><path d="M193.9 468.5H75.5V259.8c0-4.7 3.8-8.5 8.5-8.5h101.4c4.7 0 8.5 3.8 8.5 8.5v208.7z" fill="#43527a" class="fill-43527a"></path><path d="M110.1 251.3H84c-4.7 0-8.5 3.8-8.5 8.5v208.7h26.1V259.8c0-4.7 3.8-8.5 8.5-8.5z" fill="#5e7296" class="fill-5e7296"></path><path d="M420.2 371.2h-180c-7.7 0-13.9-6.2-13.9-13.9v-92.1c0-7.7 6.2-13.9 13.9-13.9h180c7.7 0 13.9 6.2 13.9 13.9v92.1c0 7.7-6.2 13.9-13.9 13.9z" fill="#9bc5ff" class="fill-9bc5ff"></path><path d="M248.6 357.3v-92.1c0-7.7 6.2-13.9 13.9-13.9h-25.2c-7.7 0-13.9 6.2-13.9 13.9v92.1c0 7.7 6.2 13.9 13.9 13.9h25.2c-7.7 0-13.9-6.2-13.9-13.9z" fill="#b8d8ff" class="fill-b8d8ff"></path><path d="M483.2 499.3H28.8c-13.4 0-24.2-10.8-24.2-24.2 0-13.4 10.8-24.2 24.2-24.2h454.5c13.4 0 24.2 10.8 24.2 24.2-.1 13.4-10.9 24.2-24.3 24.2z" fill="#bf53ed" class="fill-ff5741"></path><path d="M28.8 450.9c-13.4 0-24.2 10.8-24.2 24.2 0 13.4 10.8 24.2 24.2 24.2h1v-48.4h-1z" fill="#da78f0" class="fill-ff908a"></path><path d="M168.4 329H101c-2.6 0-4.6-2.1-4.6-4.6v-46.9c0-2.6 2.1-4.6 4.6-4.6h67.4c2.6 0 4.6 2.1 4.6 4.6v46.9c.1 2.5-2 4.6-4.6 4.6z" fill="#def6fc" class="fill-def6fc"></path><path d="M483.2 446.3h-4.6V203.7c18.9-3.4 33.4-20 33.4-39.9V130.2c0-.4-.1-.8-.3-1.2L476 34.2c-5.9-15.5-21-26-37.6-26H73.7c-16.6 0-31.7 10.4-37.6 26L.3 129l-.3 1.2v33.6c0 19.9 14.4 36.5 33.4 39.9v242.6h-4.6C12.9 446.3 0 459.2 0 475.1s12.9 28.8 28.8 28.8h454.5c15.9 0 28.8-12.9 28.8-28.8-.1-15.9-13-28.8-28.9-28.8zm19.7-282.4c0 17.3-14.1 31.4-31.4 31.4s-31.4-14.1-31.4-31.4v-28.7h62.7v28.7zm-317.5 82.9H84c-7.2 0-13 5.8-13 13v186.5H42.5v-242c14.7-.7 27.4-9.4 33.9-21.8 6.8 13 20.3 21.8 35.9 21.8s29.2-8.9 35.9-21.8c6.8 13 20.3 21.8 35.9 21.8s29.2-8.9 35.9-21.8c6.8 13 20.3 21.8 35.9 21.8s29.2-8.9 35.9-21.8c6.8 13 20.3 21.8 35.9 21.8s29.2-8.9 35.9-21.8c6.8 13 20.3 21.8 35.9 21.8s29.2-8.9 35.9-21.8c6.5 12.4 19.2 21.1 33.9 21.8v242h-271V259.8c.2-7.2-5.7-13-12.9-13zm3.9 13v186.5H80.1V259.8c0-2.2 1.8-3.9 3.9-3.9h101.4c2.2 0 3.9 1.8 3.9 3.9zM81 163.9v-28.7h62.7v28.7c0 17.3-14.1 31.4-31.4 31.4S81 181.2 81 163.9zm71.8 0v-28.7h62.7v28.7c0 17.3-14.1 31.4-31.4 31.4s-31.3-14.1-31.3-31.4zm143.7 0v-28.7h62.7v28.7c0 17.3-14.1 31.4-31.4 31.4-17.3 0-31.3-14.1-31.3-31.4zm71.8 0v-28.7H431v28.7c0 17.3-14.1 31.4-31.4 31.4-17.2 0-31.3-14.1-31.3-31.4zm70-146.6c12.8 0 24.5 8.1 29.1 20.1l33.5 88.8h-61.8L409.8 17.3h28.5zm-37.9 0 29.3 108.9h-62L350.1 17.3h50.3zm-59.6 0 17.6 108.9h-62.2l-5.9-108.9h50.5zm-110.1 0h50.5l5.9 108.9h-62.2l5.8-108.9zm-6.1 117.9h62.7v28.7c0 17.3-14.1 31.4-31.4 31.4s-31.4-14.1-31.4-31.4v-28.7zm-3-117.9-5.9 108.9h-62.2l17.6-108.9h50.5zm-59.7 0-17.6 108.9h-62l29.3-108.9h50.3zM44.6 37.4c4.5-12 16.2-20.1 29.1-20.1h28.6L72.9 126.1H11.1l33.5-88.7zM9.1 163.9v-28.7h62.7v28.7c0 17.3-14.1 31.4-31.4 31.4S9.1 181.2 9.1 163.9zm474.1 330.8H28.8c-10.8 0-19.7-8.8-19.7-19.7 0-10.8 8.8-19.7 19.7-19.7h454.5c10.8 0 19.7 8.8 19.7 19.7-.1 10.9-8.9 19.7-19.8 19.7z" fill="#133260" class="fill-133260"></path><path d="M240.2 375.7h180c10.2 0 18.4-8.3 18.4-18.4v-92.1c0-10.2-8.3-18.4-18.4-18.4h-180c-10.2 0-18.4 8.3-18.4 18.4v92.1c0 10.2 8.3 18.4 18.4 18.4zm-9.3-110.5c0-5.1 4.2-9.3 9.3-9.3h180c5.1 0 9.3 4.2 9.3 9.3v92.1c0 5.1-4.2 9.3-9.3 9.3h-180c-5.1 0-9.3-4.2-9.3-9.3v-92.1zM168.4 268.2H101c-5.1 0-9.2 4.1-9.2 9.2v46.9c0 5.1 4.1 9.2 9.2 9.2h67.4c5.1 0 9.2-4.1 9.2-9.2v-46.9c0-5.1-4.1-9.2-9.2-9.2zm.1 56.1c0 .1 0 .1 0 0l-67.5.1s-.1 0-.1-.1v-46.9s0-.1.1-.1h67.4s.1 0 .1.1v46.9z" fill="#133260" class="fill-133260"></path></g></svg>